<?xml version="1.0" standalone="no"?>
<svg xmlns="http://www.w3.org/2000/svg" viewBox="0 0 117.691 36" width="117.691" height="36"><g fill="#ff8686" color="#ff8686" transform="translate(0 6) scale(0.4444445)"><svg width="51.0" height="54.0" x="0.0" y="0.0" viewBox="0 0 51 54"><path fill="currentColor" fill-rule="evenodd" d="M28.58 14.169c5.536 1.088 7.414 1.494 7.385 1.577-.028.065 1.047 3.32 2.396 7.241 1.349 3.911 2.452 7.14 2.452 7.168 0 .036-.085.101-.179.147-.104.055-2.32 2.454-4.923 5.35-2.604 2.897-4.877 5.415-5.056 5.618-.245.258-.35.323-.406.24-.047-.074-3.084-.71-7.659-1.615l-7.574-1.494.02-.221c.018-.12-1.076-3.395-2.406-7.278-2.113-6.125-2.415-7.066-2.283-7.122.085-.027 2.443-2.592 5.226-5.682 5.055-5.599 5.074-5.617 5.32-5.507.141.065 3.593.775 7.687 1.578M22.175.129c-.028.074-.34 2.63-.679 5.692-.5 4.353-.66 5.571-.773 5.626-.076.047-4.707 1.098-10.281 2.343C4.867 15.036.245 16.087.17 16.124c-.075.046-.15.12-.17.175-.019.056 2.085 1.624 4.688 3.497 2.594 1.863 4.707 3.44 4.688 3.496-.16.396-6.197 19.721-6.197 19.823 0 .074.056.147.123.166.056.027 2.508-.978 5.442-2.242 2.933-1.254 5.357-2.26 5.386-2.223 1.264 1.365 14.299 15.045 14.403 15.119.094.065.207.083.264.046.056-.037.368-2.398.735-5.691.35-3.1.67-5.655.698-5.683.038-.027.66-.184 1.387-.34 3.207-.711 19.072-4.272 19.223-4.318a.241.241 0 0 0 .16-.212c0-.102-1.585-1.291-4.546-3.432-2.5-1.789-4.603-3.311-4.679-3.366-.103-.074.387-1.753 2.934-9.87 1.688-5.37 3.093-9.88 3.131-10.009.038-.166.02-.258-.075-.295-.076-.028-2.5.968-5.386 2.204-2.886 1.237-5.291 2.26-5.33 2.279-.046.01-3.065-3.118-6.705-6.946C22.514.074 22.439 0 22.317 0c-.047 0-.113.055-.142.13"></path></svg></g><path fill="#fe0b01" fill-rule="nonzero" d="M3.10 14.98L3.96 15.05Q4.01 15.43 4.01 15.71Q4.01 15.98 3.94 16.39L3.94 16.39Q3.10 16.37 1.99 16.37Q0.89 16.37 0.07 16.39L0.07 16.39Q0 16.03 0 15.76Q0 15.48 0.05 15.05L0.05 15.05L0.89 14.98Q1.08 12.38 1.08 8.36Q1.08 4.34 0.86 2.35L0.86 2.35L0.05 2.28Q0 1.90 0 1.62Q0 1.34 0.07 0.94L0.07 0.94Q0.91 0.96 2.02 0.96Q3.12 0.96 3.94 0.94L3.94 0.94Q4.01 1.30 4.01 1.57Q4.01 1.85 3.96 2.28L3.96 2.28L3.05 2.35Q2.88 4.46 2.88 7.75L2.88 7.75Q4.18 7.90 6 7.90Q7.82 7.90 9.48 7.70L9.48 7.70Q9.43 3.89 9.26 2.35L9.26 2.35L8.45 2.28Q8.40 1.90 8.40 1.62Q8.40 1.34 8.47 0.94L8.47 0.94Q9.31 0.96 10.42 0.96Q11.52 0.96 12.34 0.94L12.34 0.94Q12.41 1.30 12.41 1.57Q12.41 1.85 12.36 2.28L12.36 2.28L11.45 2.35Q11.28 4.30 11.28 8.38Q11.28 12.46 11.50 14.98L11.50 14.98L12.36 15.05Q12.41 15.43 12.41 15.71Q12.41 15.98 12.34 16.39L12.34 16.39Q11.50 16.37 10.39 16.37Q9.29 16.37 8.47 16.39L8.47 16.39Q8.40 16.03 8.40 15.76Q8.40 15.48 8.45 15.05L8.45 15.05L9.29 14.98Q9.43 12.89 9.48 9.62L9.48 9.62Q7.94 9.46 6 9.46Q4.06 9.46 2.88 9.62L2.88 9.62Q2.93 13.03 3.10 14.98L3.10 14.98ZM19.20 11.04L19.20 11.04Q18.02 11.04 17.02 10.92L17.02 10.92Q17.06 15.00 19.73 15.00L19.73 15.00Q21.07 15.00 22.70 13.51L22.70 13.51Q23.40 14.23 23.59 15.41L23.59 15.41Q21.62 16.73 19.42 16.73Q17.21 16.73 16.13 15.20Q15.05 13.68 15.05 10.73Q15.05 7.78 16.26 6.34Q17.47 4.90 19.70 4.90L19.70 4.90Q21.36 4.90 22.44 5.90Q23.52 6.91 23.53 8.38Q23.54 9.84 23.28 10.46L23.28 10.46Q21.48 11.04 19.20 11.04ZM19.54 6.24L19.54 6.24Q17.30 6.24 17.04 9.53L17.04 9.53Q18.12 9.65 19.42 9.65Q20.71 9.65 21.43 9.41L21.43 9.41Q21.53 8.81 21.53 8.52L21.53 8.52Q21.53 7.46 20.99 6.85Q20.45 6.24 19.54 6.24ZM34.10 8.09L34.10 8.09L34.01 11.54Q34.01 13.18 34.20 14.74L34.20 14.74L35.09 14.81Q35.14 15.19 35.14 15.52Q35.14 15.84 35.06 16.20L35.06 16.20Q34.37 16.22 32.35 16.44L32.35 16.44Q32.18 15.98 32.09 15.31L32.09 15.31Q30.22 16.73 28.86 16.73Q27.50 16.73 26.75 15.85Q25.99 14.98 25.99 13.36Q25.99 11.74 27.01 10.80Q28.03 9.86 29.58 9.86Q31.13 9.86 32.23 10.44L32.23 10.44Q32.26 10.18 32.26 9.58L32.26 9.58Q32.26 7.80 31.76 7.02Q31.27 6.24 30.26 6.24Q29.26 6.24 28.80 6.62L28.80 6.62Q28.99 7.01 28.99 7.58Q28.99 8.16 28.62 8.58Q28.25 9.00 27.58 9.00L27.58 9.00Q26.45 9.00 26.45 7.67Q26.45 6.34 27.46 5.62Q28.46 4.90 30.29 4.90Q32.11 4.90 33.11 5.75Q34.10 6.60 34.10 8.09ZM32.14 11.95L32.14 11.95Q31.15 11.11 30.02 11.11L30.02 11.11Q27.86 11.11 27.86 13.03L27.86 13.03Q27.86 15.00 29.57 15.00L29.57 15.00Q30.19 15.00 30.90 14.68Q31.61 14.35 32.02 13.87L32.02 13.87Q32.14 12.43 32.14 11.95ZM38.38 10.80L38.38 10.80L38.38 7.51Q38.38 3.19 38.26 1.63L38.26 1.63L37.30 1.56Q37.22 1.25 37.22 0.83Q37.22 0.41 37.25 0.22L37.25 0.22Q39.43 0.10 40.37 0L40.37 0L40.46 0.12Q40.13 2.98 40.13 6.26L40.13 6.26L40.13 10.22Q40.13 13.18 40.34 14.98L40.34 14.98L41.23 15.05Q41.28 15.43 41.28 15.71Q41.28 15.98 41.21 16.39L41.21 16.39Q40.37 16.37 39.26 16.37Q38.16 16.37 37.34 16.39L37.34 16.39Q37.27 16.03 37.27 15.76Q37.27 15.48 37.32 15.05L37.32 15.05L38.16 14.98Q38.38 12.72 38.38 10.80ZM43.99 12.48L43.99 12.48Q43.99 12.48 44.04 7.13L44.04 7.13Q44.04 6.77 44.02 6.58L44.02 6.58Q43.01 6.58 42.58 6.60L42.58 6.60Q42.43 6.22 42.43 5.84Q42.43 5.47 42.48 5.28L42.48 5.28L43.94 5.28L43.82 3.50Q44.42 3.31 45.08 3.31Q45.74 3.31 46.18 3.41L46.18 3.41L45.96 5.26Q47.28 5.23 48.62 5.11L48.62 5.11Q48.77 5.42 48.77 5.80Q48.77 6.17 48.67 6.70L48.67 6.70Q47.78 6.65 45.86 6.60L45.86 6.60Q45.82 7.08 45.82 8.02L45.82 8.02L45.82 12.89Q45.82 13.51 45.88 13.91Q45.94 14.30 46.19 14.63Q46.44 14.95 46.92 14.95L46.92 14.95Q47.98 14.95 48.94 14.21L48.94 14.21Q49.44 14.93 49.44 16.15L49.44 16.15Q48.12 16.73 47.15 16.73Q46.18 16.73 45.60 16.48Q45.02 16.22 44.71 15.88Q44.40 15.53 44.23 14.90L44.23 14.90Q43.99 14.02 43.99 12.48ZM60.19 7.97L60.19 7.97L60.17 10.30Q60.17 12.84 60.46 14.98L60.46 14.98L61.30 15.05Q61.34 15.43 61.34 15.71Q61.34 15.98 61.27 16.39L61.27 16.39Q60.43 16.37 59.29 16.37Q58.15 16.37 57.34 16.39L57.34 16.39Q57.26 16.03 57.26 15.76Q57.26 15.48 57.31 15.05L57.31 15.05L58.15 14.98Q58.34 12.38 58.34 10.37Q58.34 8.35 58.00 7.39Q57.65 6.43 56.59 6.43L56.59 6.43Q55.25 6.43 53.71 7.97L53.71 7.97L53.71 10.22Q53.71 13.18 53.93 14.98L53.93 14.98L54.82 15.05Q54.86 15.43 54.86 15.71Q54.86 15.98 54.79 16.39L54.79 16.39Q53.95 16.37 52.85 16.37Q51.74 16.37 50.93 16.39L50.93 16.39Q50.86 16.03 50.86 15.76Q50.86 15.48 50.90 15.05L50.90 15.05L51.74 14.98Q51.96 12.72 51.96 10.80L51.96 10.80L51.96 7.51Q51.96 3.19 51.84 1.63L51.84 1.63L50.88 1.56Q50.81 1.25 50.81 0.83Q50.81 0.41 50.83 0.22L50.83 0.22Q53.02 0.10 53.95 0L53.95 0L54.05 0.12Q53.71 2.98 53.71 6.55L53.71 6.55Q54.43 5.83 55.44 5.36Q56.45 4.90 57.36 4.90L57.36 4.90Q60.19 4.90 60.19 7.97ZM69.70 6.58L68.69 6.50Q68.64 6.26 68.64 5.87Q68.64 5.47 68.71 5.16L68.71 5.16Q69.43 5.18 70.72 5.18Q72.00 5.18 72.70 5.16L72.70 5.16Q72.77 5.47 72.77 5.83Q72.77 6.19 72.72 6.50L72.72 6.50L72.00 6.58Q71.35 8.33 70.33 11.40Q69.31 14.47 68.80 15.91Q68.28 17.35 67.84 18.24Q67.39 19.13 66.86 19.92L66.86 19.92Q65.86 21.41 64.48 21.41Q63.10 21.41 61.94 20.64L61.94 20.64Q62.04 19.25 62.74 18.65L62.74 18.65Q63.46 19.63 64.49 19.63L64.49 19.63Q65.59 19.63 66.94 16.51L66.94 16.51Q65.71 12.22 63.07 6.58L63.07 6.58L62.28 6.50Q62.23 6.22 62.23 5.84Q62.23 5.47 62.30 5.16L62.30 5.16Q63.00 5.18 64.38 5.18Q65.76 5.18 66.48 5.16L66.48 5.16Q66.55 5.47 66.55 5.84Q66.55 6.22 66.50 6.50L66.50 6.50L65.52 6.58Q65.98 9.24 67.87 13.70L67.87 13.70L67.97 13.70Q69.17 9.82 69.70 6.58L69.70 6.58ZM84.48 9.74L84.48 9.74Q84.48 4.56 84.24 2.35L84.24 2.35L83.40 2.28Q83.35 1.90 83.35 1.62Q83.35 1.34 83.42 0.94L83.42 0.94Q84.19 0.96 85.20 0.96Q86.21 0.96 86.95 0.94L86.95 0.94Q87.02 1.30 87.02 1.57Q87.02 1.85 86.98 2.28L86.98 2.28L86.18 2.35Q85.99 4.70 85.99 7.93Q85.99 11.16 85.90 12.13Q85.80 13.10 85.48 14.04Q85.15 14.98 84.58 15.53L84.58 15.53Q83.33 16.73 80.69 16.73L80.69 16.73Q77.30 16.73 76.25 14.83L76.25 14.83Q75.72 13.82 75.54 12.67Q75.36 11.52 75.36 8.04Q75.36 4.56 75.12 2.35L75.12 2.35L74.26 2.28Q74.21 1.90 74.21 1.62Q74.21 1.34 74.28 0.94L74.28 0.94Q75.12 0.96 76.22 0.96Q77.33 0.96 78.14 0.94L78.14 0.94Q78.22 1.30 78.22 1.57Q78.22 1.85 78.17 2.28L78.17 2.28L77.35 2.35Q77.16 4.70 77.16 9.74L77.16 9.74Q77.16 12.43 77.90 13.69Q78.65 14.95 80.86 14.95Q83.06 14.95 83.77 13.69Q84.48 12.43 84.48 9.74Z" transform="translate(30.667, 9.816)"></path></svg>